{"title":"Saw.The.Final.Chapter.2010.720p BRRIp X264 LKRG","uid":6114399,"size":1944247142,"categoryP":"video","categoryS":"hd___movies","magnet":"?xt=urn:btih:b3f2f4a5264d853e7f0db8032c3bd2dcde4d1f32&amp;dn=Saw.The.Final.Chapter.2010.720p+BRRIp+X264+LKRG&amp;tr=udp%3A%2F%2Ftracker.openbittorrent.com%3A80&amp;tr=udp%3A%2F%2Fopen.demonii.com%3A1337&amp;tr=udp%3A%2F%2Ftracker.coppersurfer.tk%3A6969&amp;tr=udp%3A%2F%2Fexodus.desync.com%3A6969","seeders":0,"leechers":1,"uploader":".BONE.","files":1,"time":1295490683,"description":" &lt;a href=&quot;http://www.grinshare.com/img/F5E336.png&quot; rel=&quot;nofollow&quot; target=&quot;_NEW&quot;&gt;http://www.grinshare.com/img/F5E336.png&lt;/a&gt;\n &lt;a href=&quot;\nhttp://www.grinshare.com/img/Q47U60.png&quot; rel=&quot;nofollow&quot; target=&quot;_NEW&quot;&gt;\nhttp://www.grinshare.com/img/Q47U60.png&lt;/a&gt;\n &lt;a href=&quot;\nhttp://www.grinshare.com/img/6LX0ZB.png&quot; rel=&quot;nofollow&quot; target=&quot;_NEW&quot;&gt;\nhttp://www.grinshare.com/img/6LX0ZB.png&lt;/a&gt;\n &lt;a href=&quot;\nhttp://www.grinshare.com/img/PV1AA1.png&quot; rel=&quot;nofollow&quot; target=&quot;_NEW&quot;&gt;\nhttp://www.grinshare.com/img/PV1AA1.png&lt;/a&gt;\n &lt;a href=&quot;\nhttp://www.grinshare.com/img/FENNNN.png&quot; rel=&quot;nofollow&quot; target=&quot;_NEW&quot;&gt;\nhttp://www.grinshare.com/img/FENNNN.png&lt;/a&gt;\n\nPlot: As a deadly battle rages over Jigsaw's brutal legacy, a group of Jigsaw survivors gathers to seek the support of self-help guru\nand fellow survivor Bobby Dagen, a man whose own dark secrets unleash a\nnew wave of terror.\n\nCast: Tobin Bell ...\nJigsaw / John\nCostas Mandylor Costas Mandylor ...\nHoffman\nBetsy Russell Betsy Russell ...\nJill\nCary Elwes Cary Elwes ...\nDr. Gordon\nSean Patrick Flanery Sean Patrick Flanery ...\nBobby\nChad Donella Chad Donella ...\nGibson\nGina Holden Gina Holden ...\nJoyce\nLaurence Anthony Laurence Anthony ...\nRogers\n\nFormat;Avi\n\nFile Size:1.81gb\n\nVideo: ID : 1\nFormat : AVC\nFormat/Info : Advanced Video Codec\nFormat profile : &lt;a class=&quot;__cf_email__&quot; href=&quot;/cdn-cgi/l/email-protection&quot; data-cfemail=&quot;5d15343a351d116e736c&quot;&gt;[email&amp;#160;protected]&lt;/a&gt;&lt;script cf-hash='f9e31' type=&quot;text/javascript&quot;&gt;\n/* &lt;![CDATA[ */!function(){try{var t=&quot;currentScript&quot;in document?document.currentScript:function(){for(var t=document.getElementsByTagName(&quot;script&quot;),e=t.length;e--;)if(t[e].getAttribute(&quot;cf-hash&quot;))return t[e]}();if(t&amp;&amp;t.previousSibling){var e,r,n,i,c=t.previousSibling,a=c.getAttribute(&quot;data-cfemail&quot;);if(a){for(e=&quot;&quot;,r=parseInt(a.substr(0,2),16),n=2;a.length-n;n+=2)i=parseInt(a.substr(n,2),16)^r,e+=String.fromCharCode(i);e=document.createTextNode(e),c.parentNode.replaceChild(e,c)}}}catch(u){}}();/* ]]&gt; */&lt;/script&gt;\nFormat settings, CABAC : Yes\nFormat settings, ReFrames : 4 frames\nCodec ID : avc1\nCodec ID/Info : Advanced Video Coding\nDuration : 1h 30mn\nBit rate mode : Variable\nBit rate : 2 500 Kbps\nWidth : 1 280 pixels\nHeight : 720 pixels\nDisplay aspect ratio : 16:9\nFrame rate mode : Constant\nFrame rate : 23.976 fps\nColor space : YUV\nChroma subsampling : 4:2:0\nBit depth : 8 bits\nScan type : Progressive\nBits/(Pixel*Frame) : 0.113\nStream size : 1.57 GiB (86%)\nWriting library : x264 core 106 r1732 b20059a\n\nAudio: ID : 2\nFormat : AAC\nFormat/Info : Advanced Audio Codec\nFormat version : Version 4\nFormat profile : LC\nFormat settings, SBR : No\nCodec ID : 40\nDuration : 1h 30mn\nBit rate mode : Variable\nBit rate : 384 Kbps\nChannel(s) : 6 channels\nChannel positions : Front: L C R, Side: L R, LFE\nSampling rate : 48.0 KHz\nStream size : 247 MiB (13%)\n\nDuration:1:30\n\nRelease Date:2010\n\nLanguage:English","torrent":{"xt":"urn:btih:b3f2f4a5264d853e7f0db8032c3bd2dcde4d1f32","amp;dn":"Saw.The.Final.Chapter.2010.720p+BRRIp+X264+LKRG","amp;tr":["udp%3A%2F%2Ftracker.openbittorrent.com%3A80","udp%3A%2F%2Fopen.demonii.com%3A1337","udp%3A%2F%2Ftracker.coppersurfer.tk%3A6969","udp%3A%2F%2Fexodus.desync.com%3A6969"],"infoHash":"b3f2f4a5264d853e7f0db8032c3bd2dcde4d1f32","infoHashBuffer":{"type":"Buffer","data":[179,242,244,165,38,77,133,62,127,13,184,3,44,59,210,220,222,77,31,50]},"announce":[],"urlList":[]}}